STARTFONT 2.1
FONT -DEC-FrankRuhl-Bold-O-Normal--11-80-100-100-P-66-ISO8859-8
SIZE 8 100 100
FONTBOUNDINGBOX 11 12 0 -2

STARTPROPERTIES 26
FONTNAME_REGISTRY ""
FAMILY_NAME "FrankRuhl"
FOUNDRY "DEC"
WEIGHT_NAME "Bold"
SLANT "O"
SETWIDTH_NAME "Normal"
ADD_STYLE_NAME ""
PIXEL_SIZE 11
RESOLUTION_X 100
RESOLUTION_Y 100
SPACING "P"
AVERAGE_WIDTH 66
CHARSET_REGISTRY "ISO8859"
CHARSET_ENCODING "8"
CHARSET_COLLECTIONS "ASCII ISO8859-8 "
FULL_NAME "FrankRuhl Bold Oblique"
COPYRIGHT "Digital Israel"
CAP_HEIGHT 8
X_HEIGHT 5
_DEC_DEVICE_FONTNAMES "PS=FrankRuhl-BoldOblique-ISOLatinHebrew"
QUAD_WIDTH 6
POINT_SIZE 80
WEIGHT 10
DEFAULT_CHAR 0
FONT_DESCENT 2
FONT_ASCENT 10
ENDPROPERTIES

CHARS 152

STARTCHAR space
ENCODING 32
SWIDTH 180 0
DWIDTH 2 0
BBX 1 1 0 0
BITMAP
00
ENDCHAR

STARTCHAR exclam
ENCODING 33
SWIDTH 450 0
DWIDTH 5 0
BBX 3 8 0 0
BITMAP
60
60
60
40
40
00
C0
C0
ENDCHAR

STARTCHAR quotedbl
ENCODING 34
SWIDTH 540 0
DWIDTH 6 0
BBX 3 3 1 5
BITMAP
A0
A0
A0
ENDCHAR

STARTCHAR numbersign
ENCODING 35
SWIDTH 720 0
DWIDTH 8 0
BBX 7 7 0 0
BITMAP
14
14
7E
28
FC
50
50
ENDCHAR

STARTCHAR dollar
ENCODING 36
SWIDTH 540 0
DWIDTH 6 0
BBX 5 10 0 -1
BITMAP
10
18
30
50
70
38
58
50
E0
40
ENDCHAR

STARTCHAR percent
ENCODING 37
SWIDTH 990 0
DWIDTH 11 0
BBX 10 8 0 0
BITMAP
3200
5E00
D400
E4C0
C940
0B40
1380
1300
ENDCHAR

STARTCHAR ampersand
ENCODING 38
SWIDTH 900 0
DWIDTH 10 0
BBX 9 8 0 0
BITMAP
1800
3400
3400
3B80
5900
CE00
CC80
7700
ENDCHAR

STARTCHAR quoteright
ENCODING 39
SWIDTH 270 0
DWIDTH 3 0
BBX 2 4 0 4
BITMAP
C0
C0
40
80
ENDCHAR

STARTCHAR parenleft
ENCODING 40
SWIDTH 360 0
DWIDTH 4 0
BBX 4 10 0 -2
BITMAP
10
20
60
C0
C0
C0
C0
C0
40
20
ENDCHAR

STARTCHAR parenright
ENCODING 41
SWIDTH 360 0
DWIDTH 4 0
BBX 4 10 0 -2
BITMAP
40
20
30
30
30
30
30
60
40
80
ENDCHAR

STARTCHAR asterisk
ENCODING 42
SWIDTH 540 0
DWIDTH 6 0
BBX 5 5 0 3
BITMAP
20
A8
70
A8
20
ENDCHAR

STARTCHAR plus
ENCODING 43
SWIDTH 540 0
DWIDTH 6 0
BBX 5 5 0 1
BITMAP
20
20
F8
20
20
ENDCHAR

STARTCHAR comma
ENCODING 44
SWIDTH 270 0
DWIDTH 3 0
BBX 2 4 0 -2
BITMAP
C0
C0
40
80
ENDCHAR

STARTCHAR minus
ENCODING 45
SWIDTH 630 0
DWIDTH 7 0
BBX 5 1 1 3
BITMAP
F8
ENDCHAR

STARTCHAR period
ENCODING 46
SWIDTH 270 0
DWIDTH 3 0
BBX 2 2 0 0
BITMAP
C0
C0
ENDCHAR

STARTCHAR slash
ENCODING 47
SWIDTH 450 0
DWIDTH 5 0
BBX 4 8 0 0
BITMAP
10
10
20
20
40
40
80
80
ENDCHAR

STARTCHAR zero
ENCODING 48
SWIDTH 540 0
DWIDTH 6 0
BBX 5 8 0 0
BITMAP
30
58
58
98
98
B0
B0
60
ENDCHAR

STARTCHAR one
ENCODING 49
SWIDTH 540 0
DWIDTH 6 0
BBX 4 8 0 0
BITMAP
30
70
30
30
60
60
60
F0
ENDCHAR

STARTCHAR two
ENCODING 50
SWIDTH 540 0
DWIDTH 6 0
BBX 5 8 0 0
BITMAP
70
58
18
10
20
48
F8
F0
ENDCHAR

STARTCHAR three
ENCODING 51
SWIDTH 540 0
DWIDTH 6 0
BBX 5 8 0 0
BITMAP
30
58
18
30
18
18
B0
E0
ENDCHAR

STARTCHAR four
ENCODING 52
SWIDTH 540 0
DWIDTH 6 0
BBX 5 8 0 0
BITMAP
18
38
58
58
B0
F8
30
78
ENDCHAR

STARTCHAR five
ENCODING 53
SWIDTH 540 0
DWIDTH 6 0
BBX 6 8 0 0
BITMAP
3C
38
40
70
18
18
B0
E0
ENDCHAR

STARTCHAR six
ENCODING 54
SWIDTH 540 0
DWIDTH 6 0
BBX 5 8 0 0
BITMAP
38
68
40
F0
C8
C8
D8
70
ENDCHAR

STARTCHAR seven
ENCODING 55
SWIDTH 540 0
DWIDTH 6 0
BBX 5 8 0 0
BITMAP
F8
F8
90
10
20
20
60
60
ENDCHAR

STARTCHAR eight
ENCODING 56
SWIDTH 540 0
DWIDTH 6 0
BBX 5 8 0 0
BITMAP
30
48
68
70
B8
98
90
60
ENDCHAR

STARTCHAR nine
ENCODING 57
SWIDTH 540 0
DWIDTH 6 0
BBX 5 8 0 0
BITMAP
70
D8
98
98
78
10
B0
E0
ENDCHAR

STARTCHAR colon
ENCODING 58
SWIDTH 360 0
DWIDTH 4 0
BBX 3 5 0 0
BITMAP
60
60
00
C0
C0
ENDCHAR

STARTCHAR semicolon
ENCODING 59
SWIDTH 360 0
DWIDTH 4 0
BBX 3 7 0 -2
BITMAP
60
60
00
C0
C0
40
80
ENDCHAR

STARTCHAR less
ENCODING 60
SWIDTH 630 0
DWIDTH 7 0
BBX 6 5 0 1
BITMAP
0C
30
C0
30
0C
ENDCHAR

STARTCHAR equal
ENCODING 61
SWIDTH 540 0
DWIDTH 6 0
BBX 5 3 0 2
BITMAP
F8
00
F8
ENDCHAR

STARTCHAR greater
ENCODING 62
SWIDTH 630 0
DWIDTH 7 0
BBX 6 5 0 1
BITMAP
C0
30
0C
30
C0
ENDCHAR

STARTCHAR question
ENCODING 63
SWIDTH 540 0
DWIDTH 6 0
BBX 5 8 0 0
BITMAP
70
98
18
30
40
00
C0
C0
ENDCHAR

STARTCHAR at
ENCODING 64
SWIDTH 990 0
DWIDTH 11 0
BBX 10 10 0 -1
BITMAP
0F00
3080
4040
4F40
9340
B680
BB00
8000
4180
3E00
ENDCHAR

STARTCHAR A
ENCODING 65
SWIDTH 720 0
DWIDTH 8 0
BBX 8 8 0 0
BITMAP
18
18
3C
2C
4C
7E
86
CF
ENDCHAR

STARTCHAR B
ENCODING 66
SWIDTH 720 0
DWIDTH 8 0
BBX 7 8 0 0
BITMAP
7C
36
36
3C
66
66
66
FC
ENDCHAR

STARTCHAR C
ENCODING 67
SWIDTH 630 0
DWIDTH 7 0
BBX 7 8 0 0
BITMAP
3E
62
60
C0
C0
C0
C4
78
ENDCHAR

STARTCHAR D
ENCODING 68
SWIDTH 810 0
DWIDTH 9 0
BBX 8 8 0 0
BITMAP
7E
33
33
33
63
66
66
FC
ENDCHAR

STARTCHAR E
ENCODING 69
SWIDTH 720 0
DWIDTH 8 0
BBX 7 8 0 0
BITMAP
7E
32
34
3C
64
60
64
FC
ENDCHAR

STARTCHAR F
ENCODING 70
SWIDTH 630 0
DWIDTH 7 0
BBX 7 8 0 0
BITMAP
7E
32
34
3C
64
60
60
F0
ENDCHAR

STARTCHAR G
ENCODING 71
SWIDTH 720 0
DWIDTH 8 0
BBX 7 8 0 0
BITMAP
3E
62
60
C0
CE
C6
CC
74
ENDCHAR

STARTCHAR H
ENCODING 72
SWIDTH 900 0
DWIDTH 10 0
BBX 9 8 0 0
BITMAP
7B80
3300
3300
3E00
6600
6600
6600
EF00
ENDCHAR

STARTCHAR I
ENCODING 73
SWIDTH 540 0
DWIDTH 6 0
BBX 5 8 0 0
BITMAP
78
30
30
30
60
60
60
F0
ENDCHAR

STARTCHAR J
ENCODING 74
SWIDTH 630 0
DWIDTH 7 0
BBX 6 8 0 0
BITMAP
3C
18
18
18
30
B0
B0
E0
ENDCHAR

STARTCHAR K
ENCODING 75
SWIDTH 900 0
DWIDTH 10 0
BBX 9 8 0 0
BITMAP
7B80
3100
3200
3400
7E00
6600
6300
F380
ENDCHAR

STARTCHAR L
ENCODING 76
SWIDTH 630 0
DWIDTH 7 0
BBX 6 8 0 0
BITMAP
78
30
30
30
60
60
64
FC
ENDCHAR

STARTCHAR M
ENCODING 77
SWIDTH 990 0
DWIDTH 11 0
BBX 11 8 0 0
BITMAP
F1E0
71C0
72C0
5AC0
DD80
9D80
9980
DBC0
ENDCHAR

STARTCHAR N
ENCODING 78
SWIDTH 720 0
DWIDTH 8 0
BBX 8 8 0 0
BITMAP
E7
72
72
5A
DE
8C
8C
C4
ENDCHAR

STARTCHAR O
ENCODING 79
SWIDTH 720 0
DWIDTH 8 0
BBX 7 8 0 0
BITMAP
3C
66
66
C6
C6
CC
CC
78
ENDCHAR

STARTCHAR P
ENCODING 80
SWIDTH 720 0
DWIDTH 8 0
BBX 8 8 0 0
BITMAP
7E
33
33
33
7C
60
60
F0
ENDCHAR

STARTCHAR Q
ENCODING 81
SWIDTH 720 0
DWIDTH 8 0
BBX 7 10 0 -2
BITMAP
3C
66
66
C6
C6
EC
DC
78
1A
0C
ENDCHAR

STARTCHAR R
ENCODING 82
SWIDTH 810 0
DWIDTH 9 0
BBX 8 8 0 0
BITMAP
7E
33
33
3E
6C
66
66
F7
ENDCHAR

STARTCHAR S
ENCODING 83
SWIDTH 630 0
DWIDTH 7 0
BBX 6 8 0 0
BITMAP
3C
64
40
70
38
08
98
F0
ENDCHAR

STARTCHAR T
ENCODING 84
SWIDTH 630 0
DWIDTH 7 0
BBX 6 8 0 0
BITMAP
FC
B4
B4
30
60
60
60
F0
ENDCHAR

STARTCHAR U
ENCODING 85
SWIDTH 720 0
DWIDTH 8 0
BBX 8 8 0 0
BITMAP
F7
62
62
62
C4
C4
C4
78
ENDCHAR

STARTCHAR V
ENCODING 86
SWIDTH 720 0
DWIDTH 8 0
BBX 8 8 0 0
BITMAP
F7
62
64
64
68
38
30
30
ENDCHAR

STARTCHAR W
ENCODING 87
SWIDTH 990 0
DWIDTH 11 0
BBX 11 8 0 0
BITMAP
F6E0
6640
6640
6E80
6E80
3300
3300
3300
ENDCHAR

STARTCHAR X
ENCODING 88
SWIDTH 720 0
DWIDTH 8 0
BBX 8 8 0 0
BITMAP
F7
62
34
18
30
58
8C
DE
ENDCHAR

STARTCHAR Y
ENCODING 89
SWIDTH 630 0
DWIDTH 7 0
BBX 7 8 0 0
BITMAP
F6
62
64
68
30
30
60
F0
ENDCHAR

STARTCHAR Z
ENCODING 90
SWIDTH 720 0
DWIDTH 8 0
BBX 7 8 0 0
BITMAP
7E
46
4C
18
30
64
C4
FC
ENDCHAR

STARTCHAR bracketleft
ENCODING 91
SWIDTH 450 0
DWIDTH 5 0
BBX 5 9 0 -1
BITMAP
38
30
30
60
60
60
C0
C0
E0
ENDCHAR

STARTCHAR backslash
ENCODING 92
SWIDTH 450 0
DWIDTH 5 0
BBX 4 8 0 0
BITMAP
80
80
40
40
20
20
10
10
ENDCHAR

STARTCHAR bracketright
ENCODING 93
SWIDTH 450 0
DWIDTH 5 0
BBX 5 9 0 -1
BITMAP
38
18
18
30
30
30
60
60
E0
ENDCHAR

STARTCHAR asciicircum
ENCODING 94
SWIDTH 540 0
DWIDTH 6 0
BBX 5 6 0 2
BITMAP
20
20
70
50
88
88
ENDCHAR

STARTCHAR underscore
ENCODING 95
SWIDTH 630 0
DWIDTH 7 0
BBX 6 1 0 -2
BITMAP
FC
ENDCHAR

STARTCHAR quoteleft
ENCODING 96
SWIDTH 270 0
DWIDTH 3 0
BBX 2 4 0 4
BITMAP
40
80
C0
C0
ENDCHAR

STARTCHAR a
ENCODING 97
SWIDTH 630 0
DWIDTH 7 0
BBX 6 5 0 0
BITMAP
3C
4C
D8
D8
6C
ENDCHAR

STARTCHAR b
ENCODING 98
SWIDTH 630 0
DWIDTH 7 0
BBX 6 8 0 0
BITMAP
70
30
60
78
CC
CC
D8
70
ENDCHAR

STARTCHAR c
ENCODING 99
SWIDTH 540 0
DWIDTH 6 0
BBX 5 5 0 0
BITMAP
38
48
C0
C8
70
ENDCHAR

STARTCHAR d
ENCODING 100
SWIDTH 630 0
DWIDTH 7 0
BBX 7 8 0 0
BITMAP
0E
06
0C
3C
CC
D8
D8
6C
ENDCHAR

STARTCHAR e
ENCODING 101
SWIDTH 540 0
DWIDTH 6 0
BBX 5 5 0 0
BITMAP
38
48
F0
C8
70
ENDCHAR

STARTCHAR f
ENCODING 102
SWIDTH 450 0
DWIDTH 5 0
BBX 6 10 0 -2
BITMAP
1C
30
30
F8
60
60
60
C0
C0
C0
ENDCHAR

STARTCHAR g
ENCODING 103
SWIDTH 540 0
DWIDTH 6 0
BBX 6 8 0 -2
BITMAP
0C
78
C8
F0
40
78
98
F0
ENDCHAR

STARTCHAR h
ENCODING 104
SWIDTH 630 0
DWIDTH 7 0
BBX 6 8 0 0
BITMAP
70
30
60
78
6C
6C
D8
DC
ENDCHAR

STARTCHAR i
ENCODING 105
SWIDTH 360 0
DWIDTH 4 0
BBX 3 8 0 0
BITMAP
60
60
00
E0
60
C0
C0
E0
ENDCHAR

STARTCHAR j
ENCODING 106
SWIDTH 360 0
DWIDTH 4 0
BBX 3 10 0 -2
BITMAP
60
60
00
E0
60
60
C0
C0
C0
80
ENDCHAR

STARTCHAR k
ENCODING 107
SWIDTH 630 0
DWIDTH 7 0
BBX 7 8 0 0
BITMAP
70
30
60
6C
74
F8
DA
CC
ENDCHAR

STARTCHAR l
ENCODING 108
SWIDTH 360 0
DWIDTH 4 0
BBX 4 8 0 0
BITMAP
70
30
60
60
60
C0
C0
E0
ENDCHAR

STARTCHAR m
ENCODING 109
SWIDTH 900 0
DWIDTH 10 0
BBX 9 5 0 0
BITMAP
DB00
6D80
6D80
DB00
DB80
ENDCHAR

STARTCHAR n
ENCODING 110
SWIDTH 630 0
DWIDTH 7 0
BBX 6 5 0 0
BITMAP
D8
6C
6C
D8
DC
ENDCHAR

STARTCHAR o
ENCODING 111
SWIDTH 540 0
DWIDTH 6 0
BBX 5 5 0 0
BITMAP
30
58
D8
D0
60
ENDCHAR

STARTCHAR p
ENCODING 112
SWIDTH 630 0
DWIDTH 7 0
BBX 6 7 0 -2
BITMAP
D8
6C
6C
C8
F0
C0
E0
ENDCHAR

STARTCHAR q
ENCODING 113
SWIDTH 630 0
DWIDTH 7 0
BBX 6 7 0 -2
BITMAP
34
CC
CC
D8
78
18
3C
ENDCHAR

STARTCHAR r
ENCODING 114
SWIDTH 450 0
DWIDTH 5 0
BBX 5 5 0 0
BITMAP
D8
68
60
C0
C0
ENDCHAR

STARTCHAR s
ENCODING 115
SWIDTH 360 0
DWIDTH 4 0
BBX 4 5 0 0
BITMAP
70
C0
E0
60
C0
ENDCHAR

STARTCHAR t
ENCODING 116
SWIDTH 360 0
DWIDTH 4 0
BBX 4 7 0 0
BITMAP
60
60
F0
60
C0
C0
E0
ENDCHAR

STARTCHAR u
ENCODING 117
SWIDTH 630 0
DWIDTH 7 0
BBX 6 5 0 0
BITMAP
EC
6C
D8
D8
6C
ENDCHAR

STARTCHAR v
ENCODING 118
SWIDTH 540 0
DWIDTH 6 0
BBX 5 5 0 0
BITMAP
E8
68
C8
D0
60
ENDCHAR

STARTCHAR w
ENCODING 119
SWIDTH 900 0
DWIDTH 10 0
BBX 9 5 0 0
BITMAP
ED80
6C80
CC80
D500
6600
ENDCHAR

STARTCHAR x
ENCODING 120
SWIDTH 630 0
DWIDTH 7 0
BBX 6 5 0 0
BITMAP
6C
B8
30
74
98
ENDCHAR

STARTCHAR y
ENCODING 121
SWIDTH 630 0
DWIDTH 7 0
BBX 6 7 0 -2
BITMAP
EC
64
68
28
30
A0
C0
ENDCHAR

STARTCHAR z
ENCODING 122
SWIDTH 450 0
DWIDTH 5 0
BBX 5 5 0 0
BITMAP
F8
B0
60
D0
F0
ENDCHAR

STARTCHAR braceleft
ENCODING 123
SWIDTH 450 0
DWIDTH 5 0
BBX 5 9 0 -1
BITMAP
18
30
30
60
C0
60
60
60
30
ENDCHAR

STARTCHAR bar
ENCODING 124
SWIDTH 540 0
DWIDTH 6 0
BBX 1 8 2 0
BITMAP
80
80
80
80
80
80
80
80
ENDCHAR

STARTCHAR braceright
ENCODING 125
SWIDTH 450 0
DWIDTH 5 0
BBX 5 9 0 -1
BITMAP
60
30
30
30
18
30
60
60
C0
ENDCHAR

STARTCHAR asciitilde
ENCODING 126
SWIDTH 630 0
DWIDTH 7 0
BBX 6 2 0 3
BITMAP
64
98
ENDCHAR

STARTCHAR cent
ENCODING 162
SWIDTH 540 0
DWIDTH 6 0
BBX 5 7 0 -1
BITMAP
08
38
50
D0
E8
70
40
ENDCHAR

STARTCHAR sterling
ENCODING 163
SWIDTH 630 0
DWIDTH 7 0
BBX 7 8 0 0
BITMAP
0E
12
30
FC
30
70
A4
DC
ENDCHAR

STARTCHAR currency
ENCODING 164
SWIDTH 630 0
DWIDTH 7 0
BBX 6 6 0 1
BITMAP
84
78
CC
CC
78
84
ENDCHAR

STARTCHAR yen
ENCODING 165
SWIDTH 630 0
DWIDTH 7 0
BBX 7 8 0 0
BITMAP
EE
64
68
FC
30
F8
60
F0
ENDCHAR

STARTCHAR brokenbar
ENCODING 166
SWIDTH 540 0
DWIDTH 6 0
BBX 1 8 2 0
BITMAP
80
80
80
00
00
80
80
80
ENDCHAR

STARTCHAR section
ENCODING 167
SWIDTH 540 0
DWIDTH 6 0
BBX 5 10 0 -2
BITMAP
38
48
60
70
98
C8
70
30
90
E0
ENDCHAR

STARTCHAR dieresis
ENCODING 168
SWIDTH 360 0
DWIDTH 4 0
BBX 3 2 0 6
BITMAP
A0
A0
ENDCHAR

STARTCHAR copyright
ENCODING 169
SWIDTH 810 0
DWIDTH 9 0
BBX 8 8 0 0
BITMAP
3C
42
9D
A5
A1
9D
42
3C
ENDCHAR

STARTCHAR multiply
ENCODING 170
SWIDTH 540 0
DWIDTH 6 0
BBX 5 5 0 1
BITMAP
D8
70
20
70
D8
ENDCHAR

STARTCHAR guillemotleft
ENCODING 171
SWIDTH 720 0
DWIDTH 8 0
BBX 7 4 0 1
BITMAP
36
6C
D8
6C
ENDCHAR

STARTCHAR logicalnot
ENCODING 172
SWIDTH 540 0
DWIDTH 6 0
BBX 5 3 0 2
BITMAP
F8
08
08
ENDCHAR

STARTCHAR hyphen
ENCODING 173
SWIDTH 360 0
DWIDTH 4 0
BBX 3 1 0 3
BITMAP
E0
ENDCHAR

STARTCHAR registered
ENCODING 174
SWIDTH 810 0
DWIDTH 9 0
BBX 8 8 0 0
BITMAP
3C
42
BD
95
99
B5
42
3C
ENDCHAR

STARTCHAR macron
ENCODING 175
SWIDTH 450 0
DWIDTH 5 0
BBX 4 1 0 6
BITMAP
F0
ENDCHAR

STARTCHAR degree
ENCODING 176
SWIDTH 360 0
DWIDTH 4 0
BBX 3 3 1 5
BITMAP
60
A0
C0
ENDCHAR

STARTCHAR plusminus
ENCODING 177
SWIDTH 540 0
DWIDTH 6 0
BBX 5 5 0 1
BITMAP
20
F8
20
00
F8
ENDCHAR

STARTCHAR twosuperior
ENCODING 178
SWIDTH 270 0
DWIDTH 3 0
BBX 3 4 0 4
BITMAP
60
A0
40
E0
ENDCHAR

STARTCHAR threesuperior
ENCODING 179
SWIDTH 270 0
DWIDTH 3 0
BBX 3 4 0 4
BITMAP
E0
40
20
C0
ENDCHAR

STARTCHAR acute
ENCODING 180
SWIDTH 360 0
DWIDTH 4 0
BBX 3 2 0 6
BITMAP
60
C0
ENDCHAR

STARTCHAR mu
ENCODING 181
SWIDTH 630 0
DWIDTH 7 0
BBX 6 7 0 -2
BITMAP
EC
6C
D8
D8
EC
80
80
ENDCHAR

STARTCHAR paragraph
ENCODING 182
SWIDTH 720 0
DWIDTH 8 0
BBX 7 8 0 0
BITMAP
7E
D4
D4
D4
68
28
28
7C
ENDCHAR

STARTCHAR periodcentered
ENCODING 183
SWIDTH 270 0
DWIDTH 3 0
BBX 2 2 0 3
BITMAP
C0
C0
ENDCHAR

STARTCHAR cedilla
ENCODING 184
SWIDTH 360 0
DWIDTH 4 0
BBX 3 3 0 -2
BITMAP
40
20
C0
ENDCHAR

STARTCHAR onesuperior
ENCODING 185
SWIDTH 270 0
DWIDTH 3 0
BBX 3 4 0 4
BITMAP
40
C0
40
E0
ENDCHAR

STARTCHAR divide
ENCODING 186
SWIDTH 540 0
DWIDTH 6 0
BBX 5 5 0 1
BITMAP
20
00
F8
00
20
ENDCHAR

STARTCHAR guillemotright
ENCODING 187
SWIDTH 720 0
DWIDTH 8 0
BBX 7 4 0 1
BITMAP
6C
36
6C
D8
ENDCHAR

STARTCHAR onequarter
ENCODING 188
SWIDTH 810 0
DWIDTH 9 0
BBX 8 8 0 0
BITMAP
44
C4
48
E8
12
16
2F
22
ENDCHAR

STARTCHAR onehalf
ENCODING 189
SWIDTH 810 0
DWIDTH 9 0
BBX 8 8 0 0
BITMAP
44
C4
48
E8
13
15
22
27
ENDCHAR

STARTCHAR threequarters
ENCODING 190
SWIDTH 810 0
DWIDTH 9 0
BBX 8 8 0 0
BITMAP
E4
44
28
C8
12
16
2F
22
ENDCHAR

STARTCHAR dblunderscore
ENCODING 223
SWIDTH 450 0
DWIDTH 5 0
BBX 5 7 0 -2
BITMAP
00
F8
F8
00
00
F8
F8
ENDCHAR

STARTCHAR aleph
ENCODING 224
SWIDTH 630 0
DWIDTH 7 0
BBX 7 7 0 0
BITMAP
36
36
74
5C
D8
CC
CC
ENDCHAR

STARTCHAR beth
ENCODING 225
SWIDTH 630 0
DWIDTH 7 0
BBX 7 7 0 0
BITMAP
7C
7C
0C
0C
18
FC
FC
ENDCHAR

STARTCHAR gimmel
ENCODING 226
SWIDTH 450 0
DWIDTH 5 0
BBX 5 7 0 0
BITMAP
38
38
08
18
30
F0
D0
ENDCHAR

STARTCHAR daleth
ENCODING 227
SWIDTH 630 0
DWIDTH 7 0
BBX 7 7 0 0
BITMAP
7E
7E
04
08
18
18
18
ENDCHAR

STARTCHAR he
ENCODING 228
SWIDTH 630 0
DWIDTH 7 0
BBX 7 7 0 0
BITMAP
3E
3E
06
06
6C
6C
6C
ENDCHAR

STARTCHAR waw
ENCODING 229
SWIDTH 360 0
DWIDTH 4 0
BBX 4 7 0 0
BITMAP
70
70
30
30
60
60
60
ENDCHAR

STARTCHAR zayin
ENCODING 230
SWIDTH 450 0
DWIDTH 5 0
BBX 5 7 0 0
BITMAP
78
78
10
20
60
60
60
ENDCHAR

STARTCHAR het
ENCODING 231
SWIDTH 720 0
DWIDTH 8 0
BBX 7 7 1 0
BITMAP
7E
7E
66
66
CC
CC
CC
ENDCHAR

STARTCHAR teth
ENCODING 232
SWIDTH 720 0
DWIDTH 8 0
BBX 8 7 0 0
BITMAP
73
77
2B
63
C6
FE
7C
ENDCHAR

STARTCHAR yod
ENCODING 233
SWIDTH 360 0
DWIDTH 4 0
BBX 4 5 0 2
BITMAP
70
70
30
20
40
ENDCHAR

STARTCHAR kaphfinal
ENCODING 234
SWIDTH 540 0
DWIDTH 6 0
BBX 6 9 0 -2
BITMAP
FC
FC
08
18
18
18
30
30
30
ENDCHAR

STARTCHAR kaph
ENCODING 235
SWIDTH 540 0
DWIDTH 6 0
BBX 6 7 0 0
BITMAP
78
7C
0C
0C
18
F8
F0
ENDCHAR

STARTCHAR lamed
ENCODING 236
SWIDTH 540 0
DWIDTH 6 0
BBX 6 10 0 0
BITMAP
30
30
20
7C
7C
04
0C
18
30
60
ENDCHAR

STARTCHAR memfinal
ENCODING 237
SWIDTH 540 0
DWIDTH 6 0
BBX 6 7 0 0
BITMAP
7C
7C
24
4C
88
F8
F8
ENDCHAR

STARTCHAR mem
ENCODING 238
SWIDTH 630 0
DWIDTH 7 0
BBX 7 7 0 0
BITMAP
74
7E
36
66
44
DC
DC
ENDCHAR

STARTCHAR nunfinal
ENCODING 239
SWIDTH 360 0
DWIDTH 4 0
BBX 4 9 0 -2
BITMAP
70
70
30
60
60
60
C0
C0
C0
ENDCHAR

STARTCHAR nun
ENCODING 240
SWIDTH 450 0
DWIDTH 5 0
BBX 5 7 0 0
BITMAP
38
38
18
18
30
F0
F0
ENDCHAR

STARTCHAR samekh
ENCODING 241
SWIDTH 720 0
DWIDTH 8 0
BBX 8 7 0 0
BITMAP
3E
3F
11
23
66
7C
38
ENDCHAR

STARTCHAR ayin
ENCODING 242
SWIDTH 630 0
DWIDTH 7 0
BBX 7 9 0 -2
BITMAP
36
36
16
24
2C
F8
F0
00
00
ENDCHAR

STARTCHAR pefinal
ENCODING 243
SWIDTH 540 0
DWIDTH 6 0
BBX 6 9 0 -2
BITMAP
7C
7C
2C
CC
D8
18
30
30
30
ENDCHAR

STARTCHAR pe
ENCODING 244
SWIDTH 540 0
DWIDTH 6 0
BBX 6 7 0 0
BITMAP
7C
7C
2C
6C
18
F8
F0
ENDCHAR

STARTCHAR zadikfinal
ENCODING 245
SWIDTH 540 0
DWIDTH 6 0
BBX 6 9 0 -2
BITMAP
6C
6C
2C
38
70
60
60
C0
C0
ENDCHAR

STARTCHAR zadik
ENCODING 246
SWIDTH 630 0
DWIDTH 7 0
BBX 7 7 0 0
BITMAP
76
76
16
1C
08
7C
FC
ENDCHAR

STARTCHAR kof
ENCODING 247
SWIDTH 630 0
DWIDTH 7 0
BBX 7 9 0 -2
BITMAP
3E
3E
06
6C
68
78
D8
C0
C0
ENDCHAR

STARTCHAR resh
ENCODING 248
SWIDTH 540 0
DWIDTH 6 0
BBX 6 7 0 0
BITMAP
7C
7C
0C
0C
18
18
18
ENDCHAR

STARTCHAR shin
ENCODING 249
SWIDTH 900 0
DWIDTH 10 0
BBX 10 7 0 0
BITMAP
36C0
36C0
1240
2480
6980
7F00
7F00
ENDCHAR

STARTCHAR taf
ENCODING 250
SWIDTH 810 0
DWIDTH 9 0
BBX 9 7 0 0
BITMAP
3F80
3F80
1980
1980
3300
F300
F300
ENDCHAR
ENDFONT
